# Blender v2.69 (sub 0) OBJ File: 'zapato02.blend'
# www.blender.org
mtllib zapato02.mtl
o Cube
v -0.025331 -0.001351 -1.000000
v -0.025331 -0.001351 1.000000
v -2.025331 -0.001351 1.000000
v -2.025331 -0.001351 -1.000000
v -0.025331 1.998649 -0.999999
v -0.025332 1.998649 1.000001
v -2.025331 1.998649 1.000000
v -2.025331 1.998649 -1.000000
v -0.025331 3.048687 -0.999999
v -0.025332 3.048687 1.000001
v -2.025331 3.048687 1.000000
v -2.025331 3.048687 -1.000000
v -0.025331 4.113766 -0.999999
v -0.025332 4.113766 1.000001
v -2.025331 4.113766 1.000000
v -2.025331 4.113766 -1.000000
v -0.025331 5.112477 -0.999999
v -0.025332 5.112477 1.000001
v -2.025331 5.112477 1.000000
v -2.025331 5.112477 -1.000000
v -0.025331 -0.001351 -1.000000
v -0.025331 -0.001351 1.000000
v -0.025331 1.998649 -0.999999
v -0.025332 1.998649 1.000001
v 1.311019 -0.105545 -0.709765
v 1.311019 -0.105545 0.709766
v 1.311020 1.313986 -0.709765
v 1.311019 1.313986 0.709767
v 2.746804 -0.146629 -0.466764
v 2.746804 -0.146629 0.466766
v 2.746804 0.786902 -0.466764
v 2.746804 0.786902 0.466766
v 4.104445 -0.146629 -0.466764
v 4.104445 -0.146629 0.466767
v 4.104445 0.175100 -0.466764
v 4.104445 0.175100 0.466767
v -2.183416 1.998649 -0.000000
v 0.022040 3.048687 0.000001
v -1.025331 3.048687 -1.233297
v -1.025332 3.048687 1.165305
v -2.501559 3.048687 -0.000000
v -2.025331 2.523668 -1.000000
v -2.025331 2.523668 1.000000
v 0.238373 4.113766 0.000001
v -1.025331 4.113766 -1.634553
v -1.025332 4.113766 1.559919
v -2.854401 4.113766 -0.000000
v -2.025331 3.581227 -1.000000
v -2.025331 3.581227 1.000000
v -0.025332 3.581227 1.000001
v -0.025331 3.581227 -0.999999
v 0.524662 5.112477 0.000001
v -1.025331 5.112477 -1.949223
v -1.025332 5.112477 1.856288
v -3.007372 5.084680 -0.031363
v -2.025331 4.613122 -1.000000
v -2.025331 4.613122 1.000000
v -0.025332 4.613122 1.000001
v -0.025331 4.613122 -0.999999
v -0.025331 1.998649 0.000001
v -2.342334 2.523668 -0.000000
v -2.674278 3.581227 -0.000000
v -2.889947 4.585325 -0.031363
v -1.025332 3.581227 1.358053
v -1.025331 3.581227 -1.381322
v 0.121014 3.581227 0.000001
v -1.025331 5.112477 0.000000
v -1.025332 4.613122 1.695526
v -1.025331 4.613122 -1.775186
v 0.404742 4.613122 0.000001
vn 0.000000 -0.707083 0.707083
vn 0.000000 -0.316202 0.948668
vn -0.568133 -0.586993 -0.576708
vn -0.968383 -0.249367 0.000000
vn -0.598193 -0.053499 0.799554
vn -0.965117 -0.261757 0.000000
vn 0.995453 -0.094852 0.006928
vn 0.255562 -0.022248 0.966521
vn 0.338908 0.481704 0.808100
vn -0.577349 -0.577349 0.577349
vn -0.641530 -0.054628 0.765130
vn -0.628315 -0.028504 -0.777398
vn -0.960845 -0.276986 0.000000
vn -0.626484 -0.044099 0.778161
vn -0.989257 -0.145909 0.006897
vn -0.007233 -0.235084 0.971923
vn -0.606769 -0.050752 0.793207
vn -0.009796 -0.220618 -0.975280
vn -0.609546 -0.064669 -0.790094
vn -0.626331 -0.043001 -0.778344
vn 0.756279 -0.050691 0.652242
vn 0.992065 -0.125156 -0.011353
vn -0.987182 -0.156774 -0.029756
vn -0.679189 -0.025147 0.733512
vn -0.870022 0.492813 -0.012482
vn 0.000000 -0.301218 0.953520
vn 0.779656 -0.046907 0.624409
vn 0.000000 -0.259072 0.965850
vn 0.000000 -0.319742 -0.947478
vn -0.639454 -0.049348 -0.767205
vn 0.000000 -0.290628 -0.956816
vn 0.985137 -0.171636 0.000000
vn 0.790033 -0.052431 -0.610767
vn 0.971526 -0.236824 0.000000
vn -0.003479 0.999969 0.000000
vn -0.497574 0.698111 0.514817
vn 0.000000 -0.256172 0.966613
vn 0.775231 -0.030671 0.630909
vn 0.000000 0.485488 0.874233
vn 0.000000 -0.273476 -0.961852
vn -0.691702 -0.030610 -0.721488
vn 0.000000 0.470931 -0.882138
vn 0.972808 -0.231513 0.000000
vn 0.791375 -0.030457 -0.610553
vn 0.841273 0.540574 0.000000
vn 0.407941 0.612995 -0.676595
vn 0.407941 0.612995 0.676595
vn 0.192755 0.273995 0.942198
vn 0.118503 -0.657338 0.744194
vn 0.049318 -0.273629 0.960540
vn 0.340617 0.666555 -0.663045
vn 0.091739 -0.720206 0.687613
vn 0.091739 -0.720206 -0.687613
vn 0.340617 0.666555 0.663045
vn 0.670034 0.432997 -0.602924
vn 0.045808 -0.729850 0.682028
vn 0.045808 -0.729850 -0.682028
vn 0.577349 -0.577349 -0.577349
vn 0.577349 -0.577349 0.577349
vn -0.979888 -0.198187 0.022217
vn 0.776971 -0.050478 -0.627461
vn -0.674154 -0.014374 -0.738426
vn -0.653096 -0.015748 0.757073
vn 0.576678 0.668935 0.468947
vn 0.584796 0.674093 -0.451186
vn -0.496719 0.707236 -0.503037
vn 0.784478 -0.039308 0.618854
vn 0.800989 -0.038453 -0.597400
vn 0.972106 -0.234504 0.000000
vn 0.670034 0.432997 0.602924
usemtl Material
s 1
f 1//1 2//2 4//3
f 61//4 43//5 41//6
f 5//7 6//8 23//9
f 2//2 6//8 3//10
f 3//10 7//11 4//3
f 5//7 1//1 8//12
f 62//13 49//14 47//15
f 43//5 40//16 11//17
f 39//18 42//19 12//20
f 10//21 6//8 38//22
f 63//23 57//24 55//25
f 64//26 50//27 46//28
f 65//29 48//30 45//31
f 66//32 51//33 44//34
f 67//35 55//25 19//36
f 68//37 58//38 54//39
f 69//40 56//41 53//42
f 70//43 59//44 52//45
f 27//46 23//9 28//47
f 6//8 2//2 24//48
f 1//1 5//7 21//49
f 2//2 1//1 22//50
f 27//46 28//47 31//51
f 24//48 22//50 26//52
f 21//49 23//9 25//53
f 22//50 21//49 26//52
f 31//51 32//54 35//55
f 28//47 26//52 30//56
f 25//53 27//46 29//57
f 26//52 25//53 30//56
f 33//58 35//55 34//59
f 32//54 30//56 34//59
f 29//57 31//51 33//58
f 30//56 29//57 34//59
f 42//19 61//4 41//6
f 8//12 37//60 61//4
f 37//60 7//11 61//4
f 48//30 62//13 47//15
f 12//20 41//6 62//13
f 41//6 11//17 62//13
f 6//8 10//21 40//16
f 9//61 5//7 39//18
f 56//41 63//23 55//25
f 16//62 47//15 56//41
f 47//15 15//63 63//23
f 49//14 64//26 46//28
f 11//17 40//16 64//26
f 40//16 10//21 64//26
f 51//33 65//29 45//31
f 9//61 39//18 65//29
f 39//18 12//20 65//29
f 50//27 66//32 44//34
f 10//21 38//22 66//32
f 38//22 9//61 66//32
f 52//45 67//35 18//64
f 17//65 53//42 67//35
f 53//42 20//66 67//35
f 57//24 68//37 54//39
f 15//63 46//28 68//37
f 46//28 14//67 68//37
f 59//44 69//40 53//42
f 13//68 45//31 69//40
f 45//31 16//62 69//40
f 58//38 70//43 52//45
f 14//67 44//34 70//43
f 44//34 13//68 70//43
f 2//2 3//10 4//3
f 43//5 11//17 41//6
f 6//8 24//48 23//9
f 24//48 60//69 23//9
f 6//8 7//11 3//10
f 7//11 37//60 4//3
f 37//60 8//12 4//3
f 1//1 4//3 8//12
f 49//14 15//63 47//15
f 6//8 5//7 9//61
f 38//22 6//8 9//61
f 57//24 19//36 55//25
f 50//27 14//67 46//28
f 48//30 16//62 45//31
f 51//33 13//68 44//34
f 54//39 67//35 19//36
f 58//38 18//64 54//39
f 56//41 20//66 53//42
f 59//44 17//65 52//45
f 23//9 60//69 28//47
f 60//69 24//48 28//47
f 2//2 22//50 24//48
f 5//7 23//9 21//49
f 1//1 21//49 22//50
f 28//47 32//54 31//51
f 28//47 24//48 26//52
f 23//9 27//46 25//53
f 21//49 25//53 26//52
f 32//54 36//70 35//55
f 32//54 28//47 30//56
f 27//46 31//51 29//57
f 25//53 29//57 30//56
f 35//55 36//70 34//59
f 36//70 32//54 34//59
f 31//51 35//55 33//58
f 29//57 33//58 34//59
f 12//20 42//19 41//6
f 42//19 8//12 61//4
f 7//11 43//5 61//4
f 16//62 48//30 47//15
f 48//30 12//20 62//13
f 11//17 49//14 62//13
f 7//11 6//8 43//5
f 6//8 40//16 43//5
f 5//7 8//12 42//19
f 39//18 5//7 42//19
f 20//66 56//41 55//25
f 47//15 63//23 56//41
f 15//63 57//24 63//23
f 15//63 49//14 46//28
f 49//14 11//17 64//26
f 10//21 50//27 64//26
f 13//68 51//33 45//31
f 51//33 9//61 65//29
f 12//20 48//30 65//29
f 14//67 50//27 44//34
f 50//27 10//21 66//32
f 9//61 51//33 66//32
f 67//35 54//39 18//64
f 52//45 17//65 67//35
f 20//66 55//25 67//35
f 19//36 57//24 54//39
f 57//24 15//63 68//37
f 14//67 58//38 68//37
f 17//65 59//44 53//42
f 59//44 13//68 69//40
f 16//62 56//41 69//40
f 18//64 58//38 52//45
f 58//38 14//67 70//43
f 13//68 59//44 70//43
