# Blender v2.69 (sub 0) OBJ File: 'zapato01.blend'
# www.blender.org
mtllib zapato01.mtl
o Cube
v -0.957991 0.936862 -1.158021
v -0.957991 0.936862 0.841979
v -2.957991 0.936862 0.841979
v -2.957991 0.936862 -1.158021
v -1.620299 2.507707 -1.158020
v -1.620301 2.507707 0.841980
v -2.957991 2.936862 0.841979
v -2.957991 2.936862 -1.158021
v 0.608901 0.655702 -0.733835
v 0.608901 0.655702 0.417794
v 0.608901 1.807331 -0.733835
v 0.608901 1.807331 0.417795
v 2.167917 0.043923 -0.497552
v 2.167917 0.043923 0.181512
v 2.167917 0.722986 -0.497551
v 2.167916 0.722986 0.181512
v 2.167917 0.043923 -0.497552
v 2.167917 0.043923 0.181512
v 2.167917 0.722986 -0.497551
v 2.167916 0.722986 0.181512
v 3.721216 0.200374 -0.341100
v 3.721216 0.200374 0.025061
v 3.721216 0.566536 -0.341100
v 3.721216 0.566536 0.025061
v -2.016059 0.618949 -0.477519
v -2.016059 0.618949 0.161477
v -2.655054 0.618949 0.161476
v -2.655054 0.618949 -0.477519
v -2.016059 0.006489 -0.477519
v -2.016059 0.006489 0.161477
v -2.655054 0.006489 0.161476
v -2.655054 0.006489 -0.477519
v -1.757465 2.409939 -0.835717
v -1.757466 2.409939 0.519676
v -2.664013 2.700776 0.519675
v -2.664013 2.700776 -0.835717
v -1.818945 1.283752 -0.835717
v -1.818946 1.283752 0.519675
v -2.725494 1.574589 0.519675
v -2.725493 1.574589 -0.835717
vn -0.615528 -0.456038 0.642720
vn -0.615528 -0.456038 -0.642720
vn -0.625599 -0.646016 -0.437300
vn -0.625599 -0.646016 0.437300
vn -0.437696 0.734916 -0.517960
vn -0.437696 0.734916 0.517960
vn 0.641835 0.659963 -0.390484
vn 0.641835 0.659963 0.390484
vn 0.176946 0.728355 -0.661916
vn 0.176946 0.728355 0.661916
vn 0.429273 0.659352 0.617206
vn 0.429273 0.659352 -0.617206
vn 0.124332 -0.607044 0.784875
vn 0.124332 -0.607044 -0.784875
vn 0.230049 0.247475 0.941160
vn 0.603381 0.649068 0.463240
vn -0.051485 -0.680898 0.730522
vn -0.051485 -0.680898 -0.730522
vn 0.060884 0.302286 0.951231
vn 0.131230 0.651570 0.747124
vn -0.096042 -0.343699 0.934141
vn -0.173833 -0.622089 0.763390
vn 0.629719 0.549272 0.549272
vn 0.629719 0.549272 -0.549272
vn 0.060884 -0.302286 0.951231
vn 0.131230 -0.651570 0.747124
vn 0.629719 -0.549272 -0.549272
vn 0.629719 -0.549272 0.549272
vn -0.577349 -0.577349 -0.577349
vn -0.577349 -0.577349 0.577349
vn 0.395734 -0.783654 0.478744
vn 0.395734 -0.783654 -0.478744
vn 0.577349 -0.577349 -0.577349
vn 0.577349 -0.577349 0.577349
vn 0.663808 0.456984 -0.591998
vn 0.663808 0.456984 0.591998
vn -0.487747 0.730094 -0.478561
vn -0.487747 0.730064 0.478561
vn -0.467818 0.679556 0.565050
vn -0.467818 0.679556 -0.565050
usemtl Material
s 1
f 3//1 4//2 28//3 27//4
f 8//5 7//6 35//7 36//8
f 5//9 6//10 12//11 11//12
f 2//13 6//10 7//6 3//1
f 3//1 7//6 8//5 4//2
f 5//9 1//14 4//2 8//5
f 11//12 12//11 16//15 15//16
f 6//10 2//13 10//17 12//11
f 1//14 5//9 11//12 9//18
f 2//13 1//14 9//18 10//17
f 15//16 16//15 20//19 19//20
f 12//11 10//17 14//21 16//15
f 9//18 11//12 15//16 13//22
f 10//17 9//18 13//22 14//21
f 19//20 20//19 24//23 23//24
f 16//15 14//21 18//25 20//19
f 13//22 15//16 19//20 17//26
f 14//21 13//22 17//26 18//25
f 21//27 23//24 24//23 22//28
f 20//19 18//25 22//28 24//23
f 17//26 19//20 23//24 21//27
f 18//25 17//26 21//27 22//28
f 27//4 28//3 32//29 31//30
f 2//13 3//1 27//4 26//31
f 4//2 1//14 25//32 28//3
f 1//14 2//13 26//31 25//32
f 29//33 30//34 31//30 32//29
f 26//31 27//4 31//30 30//34
f 28//3 25//32 29//33 32//29
f 25//32 26//31 30//34 29//33
f 36//8 35//7 39//35 40//36
f 7//6 6//10 34//37 35//7
f 5//9 8//5 36//8 33//38
f 6//10 5//9 33//38 34//37
f 37//39 40//36 39//35 38//40
f 35//7 34//37 38//40 39//35
f 33//38 36//8 40//36 37//39
f 34//37 33//38 37//39 38//40
